<svg xmlns="http://www.w3.org/2000/svg">
    <symbol id="logo" viewBox="350 250 940.48 960.14">
        <path d="M464.473 253.84C446.877 256.522 431.961 268.085 424.085 284.844C403.64 328.248 432.632 402.153 487.265 446.563L497.655 455.11L492.627 464.998C484.08 481.924 481.064 494.158 479.891 515.441C479.388 526.334 478.383 535.551 477.712 535.886C477.042 536.389 476.036 530.021 475.701 521.977C474.696 503.542 469.501 491.644 457.434 480.751C436.319 461.814 402.969 469.858 394.087 496.336C389.898 509.073 393.082 526.334 402.131 537.562C403.807 539.908 409.505 545.103 414.7 549.293C422.912 555.996 429.113 564.041 429.113 567.895C429.113 568.733 426.599 566.89 423.75 564.041C411.684 552.645 397.104 549.125 385.205 554.991C376.323 559.181 372.134 565.884 372.134 575.772C372.134 585.827 378.334 593.703 386.211 593.703C390.065 593.703 392.914 595.211 396.601 599.066C401.796 604.764 420.063 628.393 427.437 638.951L431.626 644.817L427.437 642.135C425.09 640.795 418.387 636.773 412.354 633.253C406.321 629.734 399.953 625.042 398.109 623.031C394.087 618.506 354.705 593.703 351.688 593.703C349.677 593.703 328.394 624.874 326.048 630.907C325.377 632.75 331.746 637.778 347.163 647.833C359.23 655.877 369.955 662.413 371.128 662.413C372.134 662.413 392.076 675.15 415.371 690.735L457.77 719.057L450.731 727.101C442.017 737.156 436.151 750.06 434.81 761.959C433.805 770.003 433.135 771.176 428.275 773.522C402.802 785.588 390.233 819.273 398.277 853.46C402.802 873.235 413.024 891.334 427.269 905.411C434.308 912.45 443.86 920.159 448.552 922.505C477.88 938.091 511.062 934.236 537.54 911.947L546.087 904.741L626.193 904.406L706.298 904.071L714.845 911.612C739.145 932.895 771.321 937.755 799.978 924.181C846.735 902.227 871.872 833.685 847.405 794.973C842.88 787.934 830.814 776.706 823.44 772.852C819.083 770.505 818.245 768.997 817.575 761.791C816.234 746.876 809.531 735.983 790.091 716.04C780.203 705.818 772.494 697.271 772.83 696.936C773.165 696.6 781.041 690.903 790.258 684.199C799.476 677.496 808.86 670.29 811.207 668.279C814.558 665.262 818.58 664.256 833.16 662.748C858.968 660.234 869.359 653.866 874.889 636.605C878.408 625.544 876.23 605.434 870.029 592.865C863.326 579.458 849.751 566.722 837.685 562.532C825.116 558.175 807.352 558.51 798.303 563.203C789.923 567.56 789.421 567.56 789.421 564.376C789.421 561.024 783.555 549.125 778.527 542.59C775.343 538.4 774.673 534.713 773.835 518.29C772.83 496.839 770.316 486.784 761.434 467.679L755.401 454.607L760.261 450.921C786.739 430.14 807.855 404.164 820.591 376.848C844.891 323.891 839.026 278.978 805.006 259.203C790.091 250.321 762.774 251.662 741.994 262.22C703.449 281.492 667.419 329.757 656.693 376.345C653.006 392.098 652.671 392.769 648.817 391.763C643.286 390.422 610.104 390.422 604.574 391.763C600.72 392.769 600.049 392.266 599.211 388.076C589.156 341.99 564.689 300.597 533.015 276.297C508.883 257.863 486.091 250.321 464.473 253.84ZM486.929 274.453C500.839 278.14 513.24 285.682 527.653 299.424C554.634 325.064 570.722 352.716 577.258 384.222C579.939 397.461 579.436 399.304 572.398 399.304C570.052 399.304 567.705 396.791 565.024 391.763C560.834 383.887 548.266 368.469 546.925 369.642C546.59 370.145 548.266 378.021 550.612 387.238C552.958 396.455 554.801 404.835 554.801 405.84C554.801 406.678 552.455 408.522 549.606 410.03C545.081 412.376 544.579 412.376 543.741 409.695C532.345 373.999 514.078 347.018 490.616 331.432C480.226 324.561 469.333 319.869 469.333 322.215C469.333 323.053 474.696 329.757 481.231 336.795C504.191 361.765 515.251 379.529 523.798 405.002C529.999 423.604 529.496 424.442 517.933 413.884C508.548 405.17 490.449 394.444 488.438 396.455C486.929 397.964 493.8 409.527 504.358 423.604C510.559 431.816 513.911 437.514 512.905 438.519C510.894 440.53 505.196 436.676 490.784 423.101C459.948 394.109 437.492 349.867 437.492 318.026C437.492 295.402 447.379 278.643 463.467 274.453C474.36 271.437 475.198 271.437 486.929 274.453ZM796.124 276.967C803.665 280.822 807.017 284.509 811.039 293.726C821.429 318.026 812.882 355.9 788.918 391.763C773.835 414.219 744.508 442.206 740.486 438.184C739.145 436.843 740.988 433.324 746.854 425.783C756.909 413.046 766.461 397.629 765.288 396.288C763.277 394.444 742.162 406.846 733.95 414.555C729.425 419.079 725.235 422.766 724.9 422.766C723.392 422.766 731.436 397.461 736.631 386.233C743.837 370.982 754.06 356.235 771.656 336.628C784.058 323.053 784.728 321.712 780.203 322.886C763.612 327.075 738.307 349.699 725.906 371.318C722.051 378.356 716.353 390.59 713.337 398.299L708.142 412.376L703.449 410.03C697.751 407.013 697.584 402.824 702.947 384.222C705.293 376.345 706.801 369.809 706.466 369.307C705.125 367.966 693.562 381.54 688.534 390.422C685.853 395.282 683.004 399.304 682.501 399.304C681.831 399.304 679.652 398.802 677.641 398.299C672.949 396.958 672.781 393.774 676.301 380.2C683.842 351.207 699.26 325.064 722.386 302.105C748.865 275.627 775.679 266.577 796.124 276.967ZM660.548 412.879C688.702 419.75 718.532 438.017 733.28 457.456C747.021 475.388 754.228 497.509 754.228 522.144C754.228 536.557 754.395 537.227 759.926 543.93C767.97 553.818 772.327 563.37 773.668 573.593L774.841 582.643L769.813 576.945L764.786 571.247L762.774 582.978C760.093 597.725 754.898 606.775 744.173 614.651C739.48 618.171 735.458 620.684 735.291 620.349C709.65 582.643 674.96 585.156 649.822 626.717L644.459 635.432L633.566 634.426C627.533 633.924 619.824 634.259 616.473 635.264L610.44 636.94L604.239 627.053C596.195 613.981 583.458 601.077 574.576 597.055C557.148 589.178 538.043 595.379 524.133 613.143C519.776 618.841 517.933 620.014 516.592 618.506C513.24 614.316 499.498 585.659 498.493 580.631C497.822 577.615 496.482 575.269 495.476 575.269C494.471 575.269 491.454 570.241 488.94 564.208L484.248 553.315L487.6 548.79C489.276 546.277 492.627 542.59 494.806 540.579C498.493 537.059 498.828 535.216 499.163 521.809C499.833 470.696 532.848 430.14 585.805 414.722C601.893 410.03 603.233 409.862 626.193 409.527C641.61 409.359 649.655 410.197 660.548 412.879ZM456.764 510.581C458.105 515.106 459.278 523.15 459.278 528.345V537.73L449.39 542.59L439.335 547.282L433.805 542.59C416.711 528.177 417.214 529.015 416.879 518.457L416.544 508.57L422.744 511.754C432.129 516.446 432.967 516.111 431.794 507.397C431.124 503.04 431.291 499.855 432.129 499.855C432.967 499.855 436.486 501.699 439.838 504.045C443.19 506.391 446.374 508.235 446.877 508.235C447.547 508.235 447.547 505.218 447.212 501.531L446.709 494.995L450.396 498.515C452.574 500.526 455.423 505.889 456.764 510.581ZM475.031 572.42L484.248 592.027L476.036 596.217C471.512 598.563 466.987 600.407 465.981 600.407C464.473 600.407 445.871 563.203 445.871 560.186C445.871 558.343 463.3 550.299 464.641 551.639C465.311 552.142 470.003 561.527 475.031 572.42ZM408.164 570.744L412.522 574.431L407.662 579.123C402.969 583.648 402.634 583.648 395.093 581.637C389.06 580.129 387.216 578.788 387.216 576.274C387.216 567.225 400.12 563.705 408.164 570.744ZM435.481 597.558L449.39 611.467L442.687 617.668L435.984 623.868L423.917 608.618L411.851 593.536L416.711 588.508C419.225 585.827 421.404 583.648 421.571 583.648C421.571 583.648 427.939 589.849 435.481 597.558ZM498.493 621.522C502.85 631.41 506.202 639.957 505.866 640.795C505.531 641.465 499.331 636.94 491.789 630.739C484.248 624.539 476.539 618.171 474.36 616.662C472.182 615.154 470.674 613.646 471.176 613.143C472.349 612.138 488.605 603.926 489.611 603.758C490.281 603.758 494.303 611.802 498.493 621.522ZM770.819 614.986C770.819 615.824 767.97 618.506 764.618 621.355L758.417 626.382L763.445 620.182C768.305 614.316 771.154 612.305 770.819 614.986ZM688.199 619.176C686.691 621.187 685.518 624.204 685.518 625.712C685.518 628.561 660.212 649.006 656.861 649.006C652.839 649.006 671.776 625.042 680.323 619.344C688.032 614.149 691.718 614.149 688.199 619.176ZM473.858 639.286C499.833 668.781 526.144 700.12 526.312 701.628C526.312 702.466 520.949 702.633 514.246 702.131L502.012 700.958L485.589 683.864C467.154 664.424 444.195 636.94 444.195 634.426C444.195 632.415 455.256 622.193 457.434 622.193C458.105 622.193 465.478 629.902 473.858 639.286ZM584.464 630.069C593.011 640.627 598.876 649.006 597.536 649.006C594.351 649.006 569.884 630.237 569.884 627.723C569.884 625.879 574.241 622.36 576.923 622.193C577.425 622.193 580.945 625.712 584.464 630.069ZM797.967 646.157C800.984 650.515 802.995 654.369 802.66 654.704C802.325 655.039 787.577 665.43 770.148 677.831L738.307 700.455L726.911 701.293C716.186 701.963 715.683 701.796 716.689 698.444C720.375 686.713 733.615 670.625 761.769 644.314L781.879 625.544L787.409 631.745C790.426 635.264 795.118 641.8 797.967 646.157ZM415.706 651.185C419.895 654.034 423.582 656.548 423.917 656.715C424.253 657.05 422.409 660.737 419.895 664.927L415.371 672.636L411.013 669.787C408.5 668.111 401.796 663.754 395.931 659.899L385.54 652.861L390.568 645.822L395.763 638.784L401.964 642.47C405.315 644.649 411.516 648.503 415.706 651.185ZM591.67 664.927C595.86 667.105 598.541 668.949 597.536 668.949C595.022 669.116 562.678 660.737 561.672 659.732C560.667 658.726 561.337 647.33 562.51 645.487C563.013 644.649 568.041 647.833 573.738 652.526C579.436 657.218 587.48 662.748 591.67 664.927ZM691.886 654.369C691.383 660.234 689.875 660.905 667.083 666.603C653.509 670.122 653.509 669.787 665.408 662.581C671.441 658.894 679.317 653.363 683.004 650.179C690.545 643.644 692.891 644.817 691.886 654.369ZM470.674 690.567L479.388 700.12L474.863 703.974C472.182 705.985 469.165 707.326 467.825 706.823C463.467 705.147 425.761 680.009 425.761 678.669C425.761 677.998 427.772 674.479 430.118 670.792L434.475 664.256L448.05 672.636C455.591 677.328 465.814 685.372 470.674 690.567ZM574.912 683.361C580.945 684.702 588.654 686.21 592.173 686.713C598.206 687.718 598.373 687.886 598.373 694.925V702.131L589.659 700.79C580.777 699.617 567.538 695.26 563.683 692.076C561.337 690.4 560.667 680.847 562.845 680.847C563.516 680.847 568.879 682.021 574.912 683.361ZM690.545 685.707C690.545 688.389 689.54 691.238 688.534 692.076C684.177 695.26 669.43 700.622 661.721 701.628L653.677 702.633V695.26V687.886L665.91 685.875C672.446 684.702 679.485 683.194 681.328 682.356C688.032 679.674 690.545 680.512 690.545 685.707ZM595.022 744.53V767.992H565.024H535.026L532.848 761.623C528.658 749.055 521.117 740.508 508.38 733.804C504.023 731.626 502.85 729.95 502.85 726.095V721.068H548.936H595.022V744.53ZM750.876 726.766C750.876 731.291 750.038 732.631 747.021 733.469C736.464 735.983 719.035 755.758 719.035 764.975C719.035 767.824 716.521 767.992 688.869 767.992H658.704V744.53V721.068H704.79H750.876V726.766ZM469.836 738.329C468.495 744.697 473.187 747.881 484.08 747.881C514.581 748.049 526.479 776.036 504.861 796.816C492.125 809.218 473.523 808.38 462.127 794.973C448.72 779.052 450.228 754.082 465.143 738.999C467.657 736.486 470.003 734.475 470.171 734.475C470.338 734.475 470.171 736.318 469.836 738.329ZM796.292 752.406C801.487 763.132 800.481 781.734 794.113 790.783C787.074 800.838 779.198 805.363 768.472 805.531C760.931 805.531 758.082 804.693 752.217 800.503C741.659 793.129 737.134 784.415 737.972 772.684C738.307 765.31 739.48 761.959 742.664 758.607C748.697 751.904 758.752 747.881 769.478 747.881C779.701 747.881 782.717 746.038 782.717 739.67V735.48L787.745 740.34C790.594 743.022 794.448 748.384 796.292 752.406ZM456.764 825.473C464.138 842.399 468.327 848.433 472.852 848.433C478.55 848.433 480.394 841.226 477.377 831.506C474.696 823.127 474.696 823.127 478.215 824.3C480.226 824.803 482.237 825.641 482.572 825.976C482.907 826.311 483.41 842.902 483.745 862.845C484.08 886.81 484.918 899.881 486.259 901.389C487.6 903.065 492.46 903.736 501.844 903.903L515.419 904.071L507.878 907.59C496.147 913.288 475.198 912.785 461.959 906.752C442.184 897.367 424.253 873.57 418.219 848.265C413.024 825.809 416.376 809.218 428.61 796.984L436.151 789.443L443.357 800.168C447.212 806.034 453.245 817.429 456.764 825.473ZM823.105 795.978C844.891 814.245 839.528 860.331 812.212 889.826C794.448 909.098 771.656 916.472 750.708 909.601C737.469 905.244 737.469 904.071 750.876 904.406C769.478 904.741 769.31 904.909 769.31 861.001C769.31 825.641 769.31 825.306 772.997 824.468C775.008 823.798 776.852 823.63 777.019 823.798C777.187 823.965 776.516 827.987 775.511 832.68C773.668 841.897 774.505 846.254 778.527 847.762C782.717 849.438 786.236 845.081 794.113 828.322C801.654 812.067 814.223 791.454 816.402 791.454C817.072 791.454 820.089 793.465 823.105 795.978ZM595.022 851.784V885.301H548.936H502.85V851.784V818.267H548.936H595.022V851.784ZM750.876 851.784V885.301H704.79H658.704V851.784V818.267H704.79H750.876V851.784Z"/>
        <path d="M613.788 422.927C611.609 423.765 610.101 425.441 610.436 426.446C611.442 429.128 622.167 429.295 623.005 426.614C624.011 423.597 618.145 421.251 613.788 422.927Z"/>
        <path d="M635.574 425.624C635.909 427.635 637.92 428.808 641.607 429.143C646.299 429.646 647.137 429.143 646.635 426.629C646.299 424.618 644.288 423.445 640.601 423.11C635.909 422.607 635.071 423.11 635.574 425.624Z"/>
        <path d="M534.193 514.265C531.679 516.778 533.188 521.471 537.88 525.325C541.734 528.677 542.572 530.688 542.572 536.553C542.572 555.49 566.872 560.183 574.246 542.419C577.765 533.872 574.413 525.828 564.358 518.789C555.812 512.756 551.454 512.589 551.454 518.287C551.454 523.147 544.248 522.644 539.221 517.449C537.042 515.102 534.863 513.762 534.193 514.265ZM560.839 526.833C562.515 529.682 556.985 534.542 554.638 532.196C553.465 531.023 553.13 529.012 553.633 527.671C554.806 524.655 559.163 524.152 560.839 526.833Z"/>
        <path d="M688.37 519.128C676.304 528.345 674.293 540.076 683.342 549.293C689.375 555.326 698.76 554.991 705.799 548.79C710.156 544.936 711.161 542.757 711.329 536.389C711.497 530.021 712.334 528.01 716.189 524.993C720.881 521.306 722.39 514.938 718.535 514.938C717.362 514.938 715.183 516.446 713.508 518.29C709.486 522.982 703.285 522.647 700.939 517.452C699.933 515.106 698.257 513.262 697.587 513.262C696.749 513.262 692.559 515.944 688.37 519.128Z"/>
        <path d="M615.464 546.949C604.571 550.3 604.403 563.372 615.128 567.394C618.648 568.735 620.156 570.411 620.156 573.092C620.156 583.482 613.285 589.348 605.744 585.158C602.727 583.65 601.219 583.482 599.878 584.823C597.029 587.672 599.711 593.537 605.073 596.219C611.609 599.57 617.307 599.403 621.999 595.548C625.686 592.532 625.854 592.532 631.384 595.884C635.406 598.23 638.59 598.732 642.78 598.062C648.981 596.889 655.684 589.85 654.176 585.996C653.17 583.147 651.83 583.147 646.299 585.493C642.948 587.169 641.272 587.002 637.752 584.655C634.401 582.477 633.563 580.466 633.563 575.271C633.563 571.584 634.233 568.567 635.071 568.567C638.088 568.567 646.97 559.853 646.97 557.004C646.97 555.328 645.126 552.311 642.948 550.3C638.255 545.943 624.346 544.267 615.464 546.949Z"/>
    </symbol>
</svg>